<svg id="Ebene_1" data-name="Ebene 1" xmlns="http://www.w3.org/2000/svg" viewBox="0 0 284.81 171.96"><defs><style>.cls-1,.cls-2{fill:#fff;}.cls-2{font-size:9.86px;font-family:ProximaNova-Regular, Proxima Nova;}.cls-3{letter-spacing:-0.04em;}.cls-4{letter-spacing:-0.03em;}</style></defs><polygon class="cls-1" points="99.27 24.07 60.17 79.91 51.98 79.91 91.08 24.07 99.27 24.07"/><polygon class="cls-1" points="137.77 79.08 133.65 73.2 133.66 73.2 137.77 79.08"/><polygon class="cls-1" points="159.4 41.92 183.97 41.92 171.47 24.07 146.9 24.07 159.4 41.92"/><polygon class="cls-1" points="128.12 41.92 152.69 41.92 140.19 24.07 115.62 24.07 128.12 41.92"/><polygon class="cls-1" points="176.6 66.48 201.17 66.48 188.68 48.63 164.1 48.63 176.6 66.48"/><polygon class="cls-1" points="190.69 41.92 215.26 41.92 202.76 24.07 178.19 24.07 190.69 41.92"/><polygon class="cls-1" points="207.89 66.48 232.46 66.48 219.96 48.63 195.39 48.63 207.89 66.48"/><rect class="cls-1" x="212.59" y="73.19" width="24.57" height="0.01"/><polygon class="cls-1" points="145.32 66.48 169.89 66.48 157.39 48.63 132.82 48.63 145.32 66.48"/><polygon class="cls-1" points="137.77 79.08 133.65 73.2 133.66 73.2 137.77 79.08"/><polygon class="cls-1" points="237.17 73.2 212.59 73.2 141.83 73.2 237.16 73.2 237.17 73.2"/><polygon class="cls-1" points="241.87 79.91 138.35 79.91 107.43 35.76 76.51 79.91 68.33 79.91 107.43 24.07 141.83 73.2 237.17 73.2 241.87 79.91"/><text class="cls-2" transform="translate(217.46 141.53)"><tspan class="cls-3">F</tspan><tspan x="5.07" y="0">AK</tspan><tspan class="cls-4" x="17.48" y="0">T</tspan><tspan x="22.83" y="0">OR 2</tspan></text><path class="cls-1" d="M43.06,102.51,29.27,122.6H22.64l4.29-29.26h6.84l-4.05,21.14L44.44,93.34h4.87l-3.62,21.14L60,93.34h7.15l-21,29.26H39.49Z"/><path class="cls-1" d="M77.87,101.41h5.62l-4.7,21.19H73.18l.61-2.63a8,8,0,0,1-6.36,3.16c-4.83,0-8.07-3.16-8.07-8.78,0-6.4,3.94-13.47,11.18-13.47a8,8,0,0,1,6.76,3.34Zm-8,16.76a6.3,6.3,0,0,0,4.87-2.5l1.62-7.37a5.84,5.84,0,0,0-5-2.46c-3.64,0-6.23,3.47-6.23,7.37A4.61,4.61,0,0,0,69.89,118.17Z"/><path class="cls-1" d="M86.69,117.07l2.37-10.83H85.55l1.09-4.83h3.51l1.28-5.79H97l-1.27,5.79h4.3l-1.14,4.83h-4.3l-2,9.21a6.4,6.4,0,0,0-.09.88c0,1.14.66,1.84,2.07,1.84a2.87,2.87,0,0,0,1.53-.44l.22,4.48a6.49,6.49,0,0,1-3.51.92c-3.77,0-6.32-1.45-6.32-4.61A6.9,6.9,0,0,1,86.69,117.07Z"/><path class="cls-1" d="M101.52,117.07l2.37-10.83h-3.51l1.09-4.83H105l1.27-5.79h5.62l-1.27,5.79h4.3l-1.14,4.83h-4.3l-2,9.21a6.4,6.4,0,0,0-.09.88c0,1.14.66,1.84,2.06,1.84a2.9,2.9,0,0,0,1.54-.44l.22,4.48a6.49,6.49,0,0,1-3.51.92c-3.77,0-6.32-1.45-6.32-4.61A6.29,6.29,0,0,1,101.52,117.07Z"/><path class="cls-1" d="M119.55,122.6H114l6.45-29.26H126L123.63,104a8.09,8.09,0,0,1,6.4-3.16c4.74,0,8,3.16,8,8.78,0,6.36-3.95,13.47-11.14,13.47a7.89,7.89,0,0,1-6.76-3.34Zm8-16.76a6.45,6.45,0,0,0-4.87,2.54L121,115.76a5.84,5.84,0,0,0,5,2.41c3.68,0,6.23-3.47,6.23-7.37A4.61,4.61,0,0,0,127.53,105.84Z"/><path class="cls-1" d="M152.76,100.88c5.4,0,9.52,3.56,9.52,9.48a13.76,13.76,0,0,1-.44,3.42H146.09v.53c0,1.8,1.89,4.38,5.79,4.38a9.55,9.55,0,0,0,5.35-1.57l1.76,3.81a13.74,13.74,0,0,1-7.5,2.2c-6.67,0-11-3.6-11-9.52C140.52,106.72,145.69,100.88,152.76,100.88Zm4.52,8.69c0-2.11-1.49-4.26-4.87-4.26a6,6,0,0,0-5.75,4.7h10.62Z"/><path class="cls-1" d="M181.23,108.17,173.6,122.6h-6l-1.75-21.19h5.57l.83,14.26,7.81-14.26h5l1.45,14.26,7.15-14.26h6L188.47,122.6h-5.92Z"/><path class="cls-1" d="M210.76,100.88c5.39,0,9.52,3.56,9.52,9.48a13.76,13.76,0,0,1-.44,3.42H204.09v.53c0,1.8,1.88,4.38,5.79,4.38a9.55,9.55,0,0,0,5.35-1.57l1.76,3.81a13.77,13.77,0,0,1-7.51,2.2c-6.66,0-11-3.6-11-9.52C198.52,106.72,203.69,100.88,210.76,100.88Zm4.52,8.69c0-2.11-1.5-4.26-4.87-4.26a6,6,0,0,0-5.75,4.7h10.62Z"/><path class="cls-1" d="M226.64,101.41h5.57l-.66,2.81a9.64,9.64,0,0,1,7.5-3.29l-1.18,5.52a9.18,9.18,0,0,0-2.06-.26,7.46,7.46,0,0,0-5.27,2.55l-3,13.86h-5.57Z"/><path class="cls-1" d="M243.31,122.6h-5.57l6.45-29.26h5.57L247.39,104a8.09,8.09,0,0,1,6.4-3.16c4.74,0,8,3.16,8,8.78,0,6.36-3.95,13.47-11.14,13.47a7.89,7.89,0,0,1-6.76-3.34Zm8-16.76a6.45,6.45,0,0,0-4.87,2.54l-1.62,7.38a5.84,5.84,0,0,0,5,2.41c3.68,0,6.23-3.47,6.23-7.37A4.61,4.61,0,0,0,251.29,105.84Z"/></svg>